<svg xmlns="http://www.w3.org/2000/svg" width="320" height="320" viewBox="0 0 1000 1000"><path id="Blauw" fill="#3394ff" d="M 199.00,564.00 C 199.00,556.69 198.65,552.17 203.53,546.04 207.27,541.34 213.16,538.86 213.68,533.00 214.14,530.10 212.93,527.94 213.68,524.00 215.38,512.38 217.85,510.69 220.55,502.00 220.55,502.00 223.51,488.00 223.51,488.00 223.51,488.00 226.40,479.00 226.40,479.00 226.40,479.00 233.79,447.00 233.79,447.00 233.79,447.00 240.71,433.00 240.71,433.00 240.71,433.00 249.90,409.00 249.90,409.00 249.90,409.00 257.25,397.00 257.25,397.00 257.25,397.00 263.41,380.29 263.41,380.29 265.55,377.25 269.30,377.67 272.40,372.98 274.42,369.93 273.61,367.62 275.02,365.33 278.39,359.84 287.27,359.01 293.00,359.00 293.00,359.00 320.00,359.00 320.00,359.00 329.86,358.88 329.14,356.12 339.00,355.92 339.00,355.92 350.00,355.92 350.00,355.92 350.00,355.92 358.00,354.15 358.00,354.15 358.00,354.15 371.00,354.15 371.00,354.15 386.76,354.11 402.35,350.14 418.00,348.28 418.00,348.28 442.00,346.82 442.00,346.82 449.42,345.92 447.15,344.02 459.00,344.00 459.00,344.00 478.00,345.00 478.00,345.00 478.00,345.00 496.00,345.00 496.00,345.00 508.57,345.00 520.70,345.08 525.20,360.00 525.96,362.50 526.07,365.40 525.96,368.00 525.35,381.79 514.58,387.98 502.00,388.00 502.00,388.00 466.00,388.00 466.00,388.00 458.72,388.09 459.27,389.19 454.00,389.99 454.00,389.99 445.00,389.99 445.00,389.99 445.00,389.99 436.00,391.90 436.00,391.90 436.00,391.90 423.00,391.90 423.00,391.90 423.00,391.90 408.00,394.27 408.00,394.27 399.02,395.57 390.08,397.99 381.00,398.09 381.00,398.09 366.00,398.09 366.00,398.09 357.43,399.09 360.95,399.94 349.00,400.00 349.00,400.00 330.00,402.00 330.00,402.00 330.00,402.00 312.00,402.00 312.00,402.00 309.66,402.00 306.26,401.80 304.22,403.02 300.43,405.31 300.27,411.55 296.54,418.00 296.54,418.00 290.24,428.00 290.24,428.00 290.24,428.00 274.00,471.00 274.00,471.00 274.00,471.00 302.00,471.00 302.00,471.00 312.40,470.98 309.43,469.97 316.00,469.18 316.00,469.18 324.00,468.68 324.00,468.68 329.21,467.83 328.59,467.08 335.00,467.00 335.00,467.00 360.00,467.00 360.00,467.00 360.00,467.00 381.00,465.09 381.00,465.09 392.96,466.07 400.47,476.44 399.96,488.00 399.55,497.34 391.91,506.51 383.00,509.20 380.02,510.10 377.08,510.00 374.00,510.00 374.00,510.00 350.00,510.00 350.00,510.00 339.60,510.02 342.56,511.03 336.00,511.82 336.00,511.82 327.00,512.32 327.00,512.32 320.34,513.40 321.91,513.99 314.00,514.00 314.00,514.00 288.00,514.00 288.00,514.00 277.60,514.02 280.56,515.03 274.00,515.91 274.00,515.91 263.00,515.91 263.00,515.91 261.73,522.29 259.80,522.90 258.53,528.00 258.53,528.00 257.24,535.00 257.24,535.00 257.24,535.00 246.10,566.00 246.10,566.00 244.36,569.14 242.44,571.42 239.96,574.00 234.67,579.49 229.92,583.61 222.00,583.96 215.11,584.26 212.94,583.04 207.00,580.00 208.99,571.79 206.79,567.69 199.00,564.00 Z M 533.00,397.97 C 550.57,392.52 551.79,417.16 537.00,423.15 535.01,423.95 532.13,424.11 530.00,423.94 522.14,423.31 520.75,417.71 521.02,411.00 521.34,403.01 526.76,401.28 533.00,397.97 Z M 621.00,489.00 C 620.86,493.04 620.62,495.86 616.94,498.40 614.69,499.96 612.60,499.95 610.00,500.00 610.00,500.00 587.00,500.00 587.00,500.00 574.79,499.98 555.66,495.89 550.74,483.00 549.69,480.25 550.05,475.09 550.00,472.00 549.82,462.25 545.07,463.77 544.15,457.00 543.23,450.24 549.73,445.24 553.41,440.00 553.41,440.00 568.88,413.00 568.88,413.00 572.99,407.23 576.53,403.46 584.00,404.06 591.85,404.68 595.66,413.49 591.40,419.96 591.40,419.96 584.80,427.09 584.80,427.09 584.80,427.09 575.00,445.00 575.00,445.00 580.80,445.00 594.65,443.59 598.85,447.31 606.48,454.08 599.41,466.95 588.00,465.87 588.00,465.87 581.00,464.13 581.00,464.13 581.00,464.13 569.00,464.13 569.00,464.13 569.00,464.13 569.00,468.00 569.00,468.00 569.17,477.18 574.35,477.40 582.00,479.42 589.66,481.43 596.21,481.00 604.00,481.00 606.72,481.00 612.68,480.75 615.00,481.60 617.19,482.40 618.29,483.56 620.00,485.00 620.27,477.23 623.10,474.15 631.00,474.00 631.00,474.00 657.00,471.95 657.00,471.95 663.29,471.25 667.64,471.53 673.00,468.00 661.27,467.99 640.91,463.35 633.34,454.00 625.89,444.78 630.46,430.74 640.00,425.07 645.36,421.89 654.79,421.03 661.00,421.00 670.47,420.96 689.50,420.51 697.00,426.39 707.88,434.94 703.11,449.36 692.00,447.85 687.31,447.21 686.06,444.20 682.00,442.78 674.23,439.41 659.72,439.79 652.00,442.78 659.16,443.76 665.03,447.89 676.00,448.93 688.91,450.14 705.73,451.84 704.96,469.00 704.61,476.77 698.02,483.11 691.00,485.86 691.00,485.86 684.00,487.54 684.00,487.54 684.00,487.54 678.00,489.53 678.00,489.53 678.00,489.53 654.00,492.17 654.00,492.17 654.00,492.17 641.00,493.91 641.00,493.91 639.01,494.02 627.56,492.97 626.00,492.40 623.81,491.60 622.72,490.44 621.00,489.00 Z M 472.00,411.85 C 480.94,409.41 488.02,414.52 485.69,424.00 484.84,427.43 481.93,430.00 480.03,433.00 480.03,433.00 472.80,447.00 472.80,447.00 472.80,447.00 463.60,465.00 463.60,465.00 463.60,465.00 459.16,477.00 459.16,477.00 459.16,477.00 453.34,486.00 453.34,486.00 453.34,486.00 441.18,511.00 441.18,511.00 441.18,511.00 426.02,538.00 426.02,538.00 426.02,538.00 419.18,552.00 419.18,552.00 419.18,552.00 408.36,567.00 408.36,567.00 406.10,571.06 406.36,572.89 405.01,576.00 403.57,579.30 394.93,589.44 391.96,591.40 390.25,592.53 389.00,592.78 387.00,592.94 379.62,593.53 373.06,588.98 374.15,581.00 375.05,574.37 380.97,573.60 384.49,568.95 387.16,565.42 386.63,562.41 389.95,557.00 389.95,557.00 400.74,542.00 400.74,542.00 400.74,542.00 407.02,529.00 407.02,529.00 407.02,529.00 425.52,495.00 425.52,495.00 425.52,495.00 433.52,478.00 433.52,478.00 433.52,478.00 439.72,468.00 439.72,468.00 439.72,468.00 444.08,457.00 444.08,457.00 444.08,457.00 448.18,449.00 448.18,449.00 448.18,449.00 451.12,442.00 451.12,442.00 451.12,442.00 455.37,435.00 455.37,435.00 459.97,425.30 461.71,417.36 472.00,411.85 Z M 511.00,429.02 C 520.91,425.71 527.74,433.32 524.28,443.00 521.50,450.76 505.55,465.38 500.70,474.00 498.16,478.50 499.62,480.72 498.40,484.00 497.33,486.91 488.77,496.55 485.99,497.98 484.23,498.88 481.95,499.07 480.00,498.94 471.30,498.35 469.39,489.97 472.19,483.00 472.19,483.00 477.21,474.00 477.21,474.00 477.21,474.00 480.98,466.00 480.98,466.00 485.18,458.90 492.87,450.60 498.25,444.00 502.73,438.49 505.06,433.06 511.00,429.02 Z M 184.00,623.00 C 187.11,623.01 190.25,622.73 192.94,624.60 198.37,628.35 196.28,632.76 197.34,638.00 198.05,641.50 200.62,645.13 202.71,648.00 202.71,648.00 219.04,669.00 219.04,669.00 225.56,675.91 236.34,685.67 241.38,693.00 241.38,693.00 251.96,713.00 251.96,713.00 251.96,713.00 255.00,721.00 255.00,721.00 255.00,721.00 265.11,697.00 265.11,697.00 265.11,697.00 273.32,670.00 273.32,670.00 273.32,670.00 290.00,643.00 290.00,643.00 290.00,643.00 287.00,642.00 287.00,642.00 292.39,637.45 296.08,630.75 298.00,624.00 312.83,626.15 309.73,633.67 309.09,643.00 308.83,646.80 309.46,651.48 308.18,655.00 305.67,661.96 295.53,669.29 290.24,684.00 290.24,684.00 283.76,707.00 283.76,707.00 283.76,707.00 278.43,719.00 278.43,719.00 278.43,719.00 268.67,744.00 268.67,744.00 265.72,752.74 262.23,768.40 255.79,774.85 250.91,779.74 242.55,779.02 238.93,772.98 236.41,768.77 236.01,761.82 236.00,757.00 236.00,757.00 236.00,737.00 236.00,737.00 235.94,724.48 232.86,723.04 227.81,713.00 225.58,708.58 224.83,705.11 221.61,701.00 221.61,701.00 210.00,688.00 210.00,688.00 221.96,673.73 201.48,666.71 190.00,667.08 186.98,667.17 181.05,667.82 178.57,665.83 176.58,664.23 177.00,660.33 177.00,658.00 176.99,653.57 176.64,638.26 177.57,635.00 179.09,629.66 182.04,629.71 184.00,623.00 Z M 351.00,638.44 C 355.52,637.86 362.21,637.08 365.85,640.31 372.53,646.24 368.03,656.14 360.00,657.60 355.64,658.68 346.80,659.99 343.06,657.60 336.81,653.08 336.26,641.34 351.00,638.44 Z M 382.00,716.00 C 382.00,716.00 390.38,727.00 390.38,727.00 392.65,730.66 394.45,735.57 398.10,737.92 402.88,740.99 413.20,741.54 419.00,742.07 419.00,742.07 449.72,745.10 449.72,745.10 449.72,745.10 458.00,744.05 458.00,744.05 464.81,743.82 469.84,747.77 468.85,755.00 468.18,759.88 462.68,764.67 458.00,765.70 458.00,765.70 430.00,763.16 430.00,763.16 422.01,762.31 398.04,760.57 392.00,758.29 388.15,756.83 385.04,754.60 382.02,751.83 375.29,745.66 374.94,741.01 370.10,734.00 364.88,726.46 359.18,724.14 359.00,714.00 359.00,714.00 359.00,707.00 359.00,707.00 359.02,693.35 365.66,684.35 375.00,675.00 377.56,672.44 381.03,668.73 384.00,666.81 390.37,662.71 411.21,656.92 419.00,656.37 423.34,655.75 427.70,656.01 432.00,656.37 439.05,657.51 458.60,657.93 464.00,660.43 468.08,662.32 473.00,667.68 474.35,672.00 475.12,674.46 475.04,678.37 475.00,681.00 474.80,692.72 463.07,704.84 453.00,709.67 448.26,711.95 437.55,714.70 432.00,716.29 425.19,718.25 420.21,719.91 413.00,720.00 408.70,720.05 389.79,720.42 387.00,719.40 384.81,718.60 383.71,717.44 382.00,716.00 Z M 564.00,743.00 C 558.72,748.23 543.88,760.29 537.00,762.44 534.88,763.11 532.22,763.00 530.00,763.00 530.00,763.00 519.00,763.00 519.00,763.00 505.71,762.84 486.22,755.53 486.00,740.00 485.71,718.79 492.69,709.40 503.61,692.00 503.61,692.00 510.33,680.00 510.33,680.00 512.29,677.20 515.59,671.29 518.06,669.60 523.08,666.15 531.20,668.11 533.40,674.00 536.52,682.35 530.00,687.71 526.51,694.00 520.15,705.47 511.93,716.58 507.44,729.00 507.44,729.00 505.00,738.00 505.00,738.00 510.71,739.92 519.97,744.48 526.00,743.74 530.21,743.22 536.51,738.63 540.00,736.14 553.48,726.52 558.38,719.73 566.81,706.00 570.02,700.78 581.05,686.62 585.18,682.00 588.52,678.28 591.67,675.42 597.00,676.15 603.67,677.06 605.10,682.22 604.98,688.00 604.84,695.55 602.58,696.54 600.07,703.00 600.07,703.00 595.21,718.00 595.21,718.00 595.21,718.00 590.19,727.00 590.19,727.00 590.19,727.00 584.00,743.00 584.00,743.00 584.00,743.00 598.00,750.29 598.00,750.29 604.64,752.81 614.54,750.41 615.85,760.00 617.28,770.50 608.48,771.01 601.00,771.00 587.90,770.98 588.47,768.68 578.00,763.42 572.81,760.82 568.09,760.10 565.02,754.00 563.63,751.23 564.00,746.17 564.00,743.00 Z M 455.00,679.00 C 448.55,677.43 431.81,675.92 425.00,676.00 417.96,676.09 416.53,677.42 410.00,679.00 405.08,680.19 394.93,683.57 391.02,686.50 386.29,690.03 377.69,703.88 378.38,709.98 378.64,712.33 379.59,713.30 381.16,715.00 381.00,713.21 380.91,709.60 381.16,708.00 381.92,705.59 383.25,703.82 385.06,702.15 391.51,696.18 394.05,701.27 406.00,700.99 413.21,700.81 420.12,698.38 427.00,696.42 440.11,692.68 448.92,692.62 455.00,679.00 Z M 343.00,678.02 C 354.20,674.28 359.15,683.03 356.20,693.00 356.20,693.00 353.32,700.00 353.32,700.00 353.32,700.00 349.78,712.00 349.78,712.00 349.78,712.00 348.25,720.00 348.25,720.00 348.25,720.00 343.54,738.00 343.54,738.00 343.54,738.00 339.92,746.00 339.92,746.00 338.88,748.56 338.47,750.53 337.00,753.00 337.00,753.00 330.12,762.00 330.12,762.00 327.73,765.05 320.44,775.70 317.98,776.98 316.25,777.88 313.93,778.07 312.00,777.94 303.61,777.37 301.57,768.98 303.50,762.00 305.79,753.68 314.52,750.14 319.10,741.00 328.07,723.08 327.23,716.20 332.26,698.00 334.54,689.71 335.25,683.35 343.00,678.02 Z M 677.00,745.00 C 673.77,755.94 658.59,773.14 647.22,760.89 641.56,754.79 640.01,740.13 640.00,732.00 640.00,732.00 640.00,698.00 640.00,698.00 640.01,691.99 640.57,686.16 648.00,685.15 652.95,684.48 657.44,687.03 658.84,692.00 658.84,692.00 658.84,725.00 658.84,725.00 659.05,729.21 659.27,729.95 660.00,734.00 672.75,718.92 671.75,708.77 683.00,700.31 688.25,696.37 696.88,697.28 699.40,704.00 700.09,705.83 700.03,709.02 699.99,711.00 699.99,711.00 697.00,737.00 697.00,737.00 705.05,732.30 714.28,721.45 720.12,714.00 722.94,710.40 729.50,701.84 733.00,699.60 740.61,694.73 749.63,700.29 749.98,709.00 750.66,725.80 739.61,722.75 731.42,732.00 726.54,737.53 719.40,746.17 714.00,750.68 714.00,750.68 706.00,756.51 706.00,756.51 699.66,761.42 695.78,765.64 687.00,764.94 675.20,764.00 679.19,752.71 677.00,745.00 Z M 175.00,686.00 C 175.00,686.00 195.00,689.00 195.00,689.00 194.49,700.11 188.85,724.53 184.89,735.00 184.89,735.00 181.37,743.00 181.37,743.00 178.98,749.35 177.13,758.74 169.00,759.85 159.61,761.13 156.65,752.72 158.61,745.00 159.57,741.20 163.25,731.26 165.27,728.00 167.01,725.20 170.48,721.64 171.20,719.00 172.47,715.91 171.32,713.89 171.20,711.00 171.20,711.00 175.00,686.00 175.00,686.00 Z M 768.00,760.00 C 761.60,754.12 754.18,750.40 754.25,741.00 753.95,738.05 753.80,730.52 754.25,728.00 756.26,721.61 764.77,713.01 771.00,710.92 774.11,709.87 776.79,710.01 780.00,710.00 788.16,709.99 802.63,707.94 800.85,721.00 800.51,723.52 799.57,725.09 797.85,726.94 791.90,733.38 786.74,730.23 783.00,729.97 779.73,729.75 774.60,732.22 774.45,735.98 774.32,739.15 779.72,741.92 782.00,743.68 787.32,747.78 797.39,755.04 797.94,762.00 798.51,769.16 794.56,773.95 788.00,776.53 783.77,778.19 775.74,778.49 771.00,779.32 771.00,779.32 762.00,781.42 762.00,781.42 748.38,784.54 739.69,789.66 725.00,789.99 720.42,790.09 716.51,790.15 713.60,785.94 710.86,781.98 710.31,769.49 720.00,768.15 723.56,767.66 726.23,769.03 729.00,768.95 731.38,768.89 740.10,765.88 743.00,764.98 750.99,762.49 759.60,760.08 768.00,760.00 Z M 382.00,715.00 C 382.00,715.00 381.00,715.00 381.00,715.00 381.00,715.00 382.00,716.00 382.00,716.00 382.00,716.00 382.00,715.00 382.00,715.00 Z"/><path id="Wit" fill="#fff" d="M 0.00,320.00 C 0.00,320.00 39.00,326.25 39.00,326.25 39.00,326.25 67.00,331.00 67.00,331.00 67.00,331.00 75.00,331.00 75.00,331.00 75.00,331.00 84.00,332.00 84.00,332.00 84.00,332.00 121.00,336.83 121.00,336.83 121.00,336.83 138.00,338.17 138.00,338.17 138.00,338.17 162.00,340.90 162.00,340.90 162.00,340.90 171.00,340.05 171.00,340.05 171.00,340.05 184.00,340.05 184.00,340.05 184.00,340.05 206.00,342.00 206.00,342.00 216.89,342.02 245.28,347.37 255.00,351.79 261.35,354.68 272.81,359.33 273.85,367.00 274.95,375.07 268.36,379.19 261.00,377.61 261.00,377.61 243.00,369.55 243.00,369.55 230.12,364.95 213.61,362.16 200.00,362.00 200.00,362.00 180.00,359.37 180.00,359.37 180.00,359.37 172.00,359.98 172.00,359.98 172.00,359.98 158.00,359.98 158.00,359.98 158.00,359.98 130.00,357.28 130.00,357.28 130.00,357.28 112.00,355.83 112.00,355.83 112.00,355.83 76.00,351.00 76.00,351.00 49.77,350.87 21.02,341.46 0.00,341.00 0.00,341.00 0.00,320.00 0.00,320.00 Z M 0.00,388.00 C 0.00,388.00 65.00,394.28 65.00,394.28 78.57,395.98 85.79,397.84 100.00,398.00 100.00,398.00 114.00,400.00 114.00,400.00 114.00,400.00 126.00,400.00 126.00,400.00 126.00,400.00 143.00,402.83 143.00,402.83 143.00,402.83 168.00,402.00 168.00,402.00 179.18,402.02 178.90,403.96 187.00,404.92 187.00,404.92 204.00,404.92 204.00,404.92 211.45,405.09 211.45,406.23 217.00,406.83 228.13,408.02 238.58,407.16 237.98,422.00 237.70,428.86 232.18,434.83 225.00,433.85 220.21,433.20 218.27,430.29 217.00,426.00 217.00,426.00 199.00,424.09 199.00,424.09 199.00,424.09 183.00,424.09 183.00,424.09 183.00,424.09 167.00,421.92 167.00,421.92 167.00,421.92 158.00,421.92 158.00,421.92 158.00,421.92 140.00,421.92 140.00,421.92 140.00,421.92 123.00,420.08 123.00,420.08 123.00,420.08 114.00,420.08 114.00,420.08 114.00,420.08 96.00,418.00 96.00,418.00 96.00,418.00 57.00,413.42 57.00,413.42 57.00,413.42 0.00,408.00 0.00,408.00 0.00,408.00 0.00,388.00 0.00,388.00 Z M 0.00,431.00 C 0.00,431.00 36.00,435.00 36.00,435.00 36.00,435.00 45.00,435.00 45.00,435.00 45.00,435.00 56.00,436.00 56.00,436.00 56.00,436.00 79.00,437.00 79.00,437.00 79.00,437.00 92.00,438.00 92.00,438.00 92.00,438.00 121.00,439.91 121.00,439.91 121.00,439.91 142.00,441.17 142.00,441.17 142.00,441.17 167.00,443.00 167.00,443.00 167.00,443.00 202.00,443.00 202.00,443.00 209.06,443.05 214.99,445.67 213.85,454.00 212.84,461.43 207.01,461.99 201.00,462.00 201.00,462.00 156.00,462.00 156.00,462.00 149.65,461.92 147.27,460.24 141.00,462.00 147.31,462.29 147.01,462.99 152.00,463.70 152.00,463.70 162.00,464.21 162.00,464.21 168.47,465.23 174.80,471.03 173.85,478.00 172.94,484.67 166.95,486.86 161.00,485.61 161.00,485.61 153.00,483.21 153.00,483.21 153.00,483.21 142.00,482.54 142.00,482.54 135.78,481.44 128.38,479.11 122.00,479.76 122.00,479.76 113.00,479.76 113.00,479.76 108.17,480.01 105.76,479.65 101.00,481.00 108.76,481.70 112.13,484.14 119.00,486.99 119.00,486.99 135.00,492.90 135.00,492.90 135.00,492.90 149.00,500.75 149.00,500.75 149.00,500.75 167.00,509.66 167.00,509.66 167.00,509.66 176.00,512.55 176.00,512.55 176.00,512.55 188.00,518.26 188.00,518.26 190.60,519.63 194.46,522.47 197.00,522.99 203.51,524.34 212.41,520.46 213.85,531.00 214.84,538.28 206.42,544.97 200.00,545.85 200.00,545.85 187.00,545.17 187.00,545.17 187.00,545.17 176.00,546.00 176.00,546.00 162.03,546.02 157.32,544.90 144.00,543.28 144.00,543.28 128.00,541.57 128.00,541.57 119.98,540.38 106.56,537.85 99.00,540.00 115.59,540.76 131.11,547.15 147.00,551.13 147.00,551.13 185.00,559.31 185.00,559.31 193.35,562.19 209.55,563.44 207.85,576.00 207.24,580.48 199.51,590.57 195.00,591.58 191.50,592.55 187.26,591.04 183.00,591.58 183.00,591.58 166.00,593.91 166.00,593.91 166.00,593.91 136.00,591.09 136.00,591.09 136.00,591.09 117.00,589.72 117.00,589.72 117.00,589.72 86.00,585.28 86.00,585.28 86.00,585.28 50.00,580.92 50.00,580.92 50.00,580.92 0.00,572.00 0.00,572.00 0.00,572.00 0.00,551.00 0.00,551.00 0.00,551.00 24.00,555.61 24.00,555.61 24.00,555.61 64.00,562.72 64.00,562.72 64.00,562.72 100.00,567.00 100.00,567.00 100.00,567.00 131.00,571.02 131.00,571.02 131.00,571.02 144.00,571.02 144.00,571.02 144.00,571.02 109.00,562.00 109.00,562.00 109.00,562.00 59.00,551.80 59.00,551.80 59.00,551.80 32.00,546.57 32.00,546.57 32.00,546.57 11.00,540.45 11.00,540.45 11.00,540.45 1.02,537.42 1.02,537.42 1.02,537.42 0.00,523.00 0.00,523.00 0.00,523.00 0.00,481.00 0.00,481.00 7.39,484.54 8.72,489.94 5.00,497.00 5.00,497.00 45.00,505.58 45.00,505.58 45.00,505.58 101.00,516.00 101.00,516.00 111.15,517.97 134.87,523.59 144.00,521.00 144.00,521.00 124.00,511.07 124.00,511.07 124.00,511.07 111.00,506.40 111.00,506.40 111.00,506.40 99.00,501.36 99.00,501.36 99.00,501.36 83.00,496.55 83.00,496.55 83.00,496.55 33.00,477.29 33.00,477.29 33.00,477.29 0.00,473.00 0.00,473.00 0.00,473.00 0.00,431.00 0.00,431.00 Z M 124.00,459.00 C 124.00,459.00 85.00,457.00 85.00,457.00 85.00,457.00 71.00,456.00 71.00,456.00 71.00,456.00 49.00,455.00 49.00,455.00 49.00,455.00 32.00,455.00 32.00,455.00 32.00,455.00 40.00,457.47 40.00,457.47 40.00,457.47 75.00,460.98 75.00,460.98 75.00,460.98 87.00,460.05 87.00,460.05 87.00,460.05 107.00,460.82 107.00,460.82 107.00,460.82 124.00,459.00 124.00,459.00 Z M 149.00,572.00 C 149.00,572.00 148.00,572.00 148.00,572.00 148.00,572.00 149.00,573.00 149.00,573.00 149.00,573.00 149.00,572.00 149.00,572.00 Z M 0.00,578.00 C 0.00,578.00 36.00,585.58 36.00,585.58 36.00,585.58 54.00,588.42 54.00,588.42 54.00,588.42 78.00,592.71 78.00,592.71 78.00,592.71 98.00,594.44 98.00,594.44 98.00,594.44 141.00,603.58 141.00,603.58 152.12,605.11 163.20,608.25 174.00,611.39 178.81,612.79 183.12,615.65 183.85,621.00 184.74,627.52 180.44,631.96 174.00,631.94 167.93,631.93 148.97,625.96 142.00,624.15 142.00,624.15 124.00,621.54 124.00,621.54 124.00,621.54 89.00,613.44 89.00,613.44 89.00,613.44 70.00,611.83 70.00,611.83 70.00,611.83 58.00,609.92 58.00,609.92 58.00,609.92 21.00,603.40 21.00,603.40 21.00,603.40 0.00,599.00 0.00,599.00 0.00,599.00 0.00,578.00 0.00,578.00 Z M 0.00,635.00 C 0.00,635.00 24.00,639.80 24.00,639.80 24.00,639.80 65.00,647.57 65.00,647.57 65.00,647.57 96.00,651.43 96.00,651.43 96.00,651.43 136.00,660.00 136.00,660.00 136.00,660.00 165.00,664.05 165.00,664.05 165.00,664.05 183.72,667.10 183.72,667.10 192.55,667.80 194.56,666.04 205.00,669.39 210.46,671.15 214.66,676.04 213.85,682.00 212.80,689.68 206.25,690.40 200.00,689.58 200.00,689.58 189.00,688.71 189.00,688.71 189.00,688.71 163.00,684.08 163.00,684.08 163.00,684.08 132.00,679.92 132.00,679.92 132.00,679.92 93.00,671.42 93.00,671.42 93.00,671.42 56.00,666.57 56.00,666.57 56.00,666.57 0.00,656.00 0.00,656.00 0.00,656.00 0.00,635.00 0.00,635.00 Z M 0.00,661.00 C 12.43,662.02 52.09,674.11 66.00,678.28 66.00,678.28 135.00,696.14 135.00,696.14 135.00,696.14 152.00,701.96 152.00,701.96 156.34,703.28 161.06,703.60 165.00,706.00 169.43,708.71 172.59,712.56 171.85,718.00 171.53,720.35 170.64,722.10 168.85,723.69 163.22,728.68 156.08,724.14 150.00,723.00 149.97,731.13 147.72,737.28 138.00,735.74 130.97,734.63 123.42,729.89 119.00,729.21 102.36,726.65 84.85,728.19 68.00,728.00 68.00,728.00 44.00,726.00 44.00,726.00 28.03,725.98 27.96,726.59 12.00,722.63 9.57,722.02 2.35,720.96 0.99,719.26 -0.26,717.71 0.00,713.95 0.00,712.00 0.00,712.00 0.00,700.00 0.00,700.00 0.00,700.00 16.00,702.45 16.00,702.45 16.00,702.45 34.00,706.30 34.00,706.30 34.00,706.30 51.00,706.30 51.00,706.30 65.19,707.96 82.16,711.06 96.00,707.00 81.65,705.83 39.68,691.57 22.00,687.13 22.00,687.13 7.00,683.13 7.00,683.13 5.09,682.63 2.26,682.11 1.02,680.44 -0.23,678.74 0.00,675.08 0.00,673.00 0.00,673.00 0.00,661.00 0.00,661.00 Z"/></svg>